<?xml version="1.0" encoding="utf-8"?>
<!-- Generator: Adobe Illustrator 23.0.1, SVG Export Plug-In . SVG Version: 6.00 Build 0)  -->
<svg version="1.1" id="Layer_1" xmlns="http://www.w3.org/2000/svg" xmlns:xlink="http://www.w3.org/1999/xlink" x="0px" y="0px"
	 viewBox="0 0 74 94.3" style="enable-background:new 0 0 74 94.3;" xml:space="preserve">
<title>Asset 1</title>
<g id="Layer_1-2">
	<rect x="17" y="12.4" width="40" height="3"/>
	<rect x="17" y="18.4" width="40" height="3"/>
	<rect x="17" y="24.4" width="28" height="3"/>
	<rect x="17" y="32.6" width="25" height="15"/>
	<rect x="44" y="32.6" width="13" height="15"/>
	<path d="M68.5,0h-63C2.5,0,0,2.5,0,5.5v49c0,3,2.5,5.5,5.5,5.5h63c3,0,5.5-2.5,5.5-5.5v-49C74,2.5,71.5,0,68.5,0z M71,54.5
		c0,1.4-1.1,2.5-2.5,2.5c0,0,0,0,0,0h-63C4.1,57,3,55.9,3,54.5c0,0,0,0,0,0v-49C3,4.1,4.1,3,5.5,3c0,0,0,0,0,0h63
		C69.9,3,71,4.1,71,5.5c0,0,0,0,0,0V54.5z"/>
	<g>
		<path d="M12.1,76.2V63.4c0-0.4-0.5-0.7-1.1-0.7c-0.6,0-1.1,0.3-1.1,0.7v12.8c0,0.4,0.5,0.7,1.1,0.7C11.6,76.9,12.1,76.6,12.1,76.2
			z"/>
		<path d="M12.1,82v-3.3c0-0.4-0.5-0.7-1.1-0.7c-0.5,0-1,0.2-1.1,0.6c0,0,0,0,0,0.1v3.3c0,0.4,0.5,0.7,1.1,0.7
			C11.5,82.7,12,82.4,12.1,82C12.1,82,12.1,82,12.1,82z"/>
	</g>
	<path d="M24,68.6c-0.6,0-1.1,0.2-1.1,0.5l0,0v9c0,0.3,0.5,0.5,1.1,0.5s1.1-0.2,1.1-0.5l0,0v-9C25.1,68.8,24.6,68.6,24,68.6z"/>
	<g>
		<path d="M37,62.8c-0.6,0-1.1,0.3-1.1,0.7l0,0v12.7c-0.1,0.4,0.4,0.8,1,0.8c0.6,0,1.1-0.3,1.2-0.7V63.5
			C38.1,63.1,37.6,62.8,37,62.8z"/>
		<path d="M38.1,82v-3.2c0.1-0.4-0.4-0.8-1-0.8c-0.6,0-1.1,0.3-1.2,0.7l0,0V82c-0.1,0.4,0.4,0.8,1,0.8c0.6,0,1.1-0.3,1.2-0.7l0,0V82
			z"/>
	</g>
	<path d="M48.9,74.1c0,0.3,0.5,0.5,1.1,0.5c0.6,0,1.1-0.2,1.1-0.5v-9c0-0.3-0.5-0.5-1.1-0.5c-0.6,0-1.1,0.2-1.1,0.5V74.1z"/>
	<g>
		<path d="M63,62.6c-0.6,0-1.1,0.3-1.1,0.7l0,0v12.8c0,0.4,0.5,0.7,1.1,0.7s1.1-0.3,1.1-0.7c0,0,0,0,0,0V63.4
			C64.1,63,63.6,62.7,63,62.6z"/>
		<path d="M61.9,78.7v3.3c0,0.4,0.5,0.7,1.1,0.7c0.6,0,1.1-0.3,1.1-0.7v-3.3c0-0.4-0.5-0.7-1.1-0.7C62.4,77.9,61.9,78.3,61.9,78.7
			C61.9,78.7,61.9,78.7,61.9,78.7z"/>
	</g>
</g>
</svg>
