<svg xmlns="http://www.w3.org/2000/svg" viewBox="0 0 74 94.3"><title>Asset 1</title><g id="Layer_2" data-name="Layer 2"><g id="Layer_1-2" data-name="Layer 1"><rect x="17" y="12.4" width="40" height="3"/><rect x="17" y="18.4" width="40" height="3"/><rect x="17" y="24.4" width="28" height="3"/><rect x="17" y="32.6" width="25" height="15"/><rect x="44" y="32.6" width="13" height="15"/><path d="M68.5,0H5.5A5.55,5.55,0,0,0,0,5.5v49A5.55,5.55,0,0,0,5.5,60h63A5.55,5.55,0,0,0,74,54.5V5.5A5.55,5.55,0,0,0,68.5,0ZM71,54.5A2.48,2.48,0,0,1,68.5,57H5.5A2.48,2.48,0,0,1,3,54.5V5.5A2.48,2.48,0,0,1,5.5,3h63A2.48,2.48,0,0,1,71,5.5Z"/><path d="M12.1,83V63.7a1.1,1.1,0,0,0-2.2,0V83a1.1,1.1,0,0,0,2.2,0Z"/><path d="M12.1,91.7V86.8A1.11,1.11,0,0,0,11,85.7a1,1,0,0,0-1.1,1v4.9A1.11,1.11,0,0,0,11,92.7,1,1,0,0,0,12.1,91.7Z"/><path d="M24.6,72.8a1.11,1.11,0,0,0-1.1,1.1h0V93.2a1.1,1.1,0,1,0,2.2,0h0V73.9a1.11,1.11,0,0,0-1.1-1.1Z"/><path d="M37,62.6a1.11,1.11,0,0,0-1.1,1.1h0V83a1.1,1.1,0,1,0,2.2.2V63.7A1.18,1.18,0,0,0,37,62.6Z"/><path d="M38.1,91.7V86.8a1.1,1.1,0,0,0-2.2-.2v5.1a1.1,1.1,0,1,0,2.2.2Z"/><path d="M46.1,88.3a1.1,1.1,0,0,0,2.2,0V69a1.1,1.1,0,0,0-2.2,0Z"/><path d="M63,62.6a1.11,1.11,0,0,0-1.1,1.1h0V83a1.1,1.1,0,1,0,2.2,0V63.7A1.11,1.11,0,0,0,63,62.6Z"/><path d="M61.9,86.7v4.9a1.1,1.1,0,0,0,2.2,0V86.7a1.1,1.1,0,1,0-2.2,0Z"/></g></g></svg>